<!-- <svg xmlns="http://www.w3.org/2000/svg" x="0px" y="0px" width="100" height="100" viewBox="0,0,256,256">
<g fill="#121212" fill-rule="nonzero" stroke="none" stroke-width="1" stroke-linecap="butt" stroke-linejoin="miter" stroke-miterlimit="10" stroke-dasharray="" stroke-dashoffset="0" font-family="none" font-weight="none" font-size="none" text-anchor="none" style="mix-blend-mode: normal"><path d="M0,256v-256h256v256z" id="bgRectangle"></path></g><g fill="#dddddd" fill-rule="nonzero" stroke="none" stroke-width="1" stroke-linecap="butt" stroke-linejoin="miter" stroke-miterlimit="10" stroke-dasharray="" stroke-dashoffset="0" font-family="none" font-weight="none" font-size="none" text-anchor="none" style="mix-blend-mode: normal"><g transform="scale(3.55556,3.55556)"><path d="M36,12c13.255,0 24,10.745 24,24c0,10.656 -6.948,19.685 -16.559,22.818c0.003,-0.009 0.007,-0.022 0.007,-0.022c0,0 -1.62,-0.759 -1.586,-2.114c0.038,-1.491 0,-4.971 0,-6.248c0,-2.193 -1.388,-3.747 -1.388,-3.747c0,0 10.884,0.122 10.884,-11.491c0,-4.481 -2.342,-6.812 -2.342,-6.812c0,0 1.23,-4.784 -0.426,-6.812c-1.856,-0.2 -5.18,1.774 -6.6,2.697c0,0 -2.25,-0.922 -5.991,-0.922c-3.742,0 -5.991,0.922 -5.991,0.922c-1.419,-0.922 -4.744,-2.897 -6.6,-2.697c-1.656,2.029 -0.426,6.812 -0.426,6.812c0,0 -2.342,2.332 -2.342,6.812c0,11.613 10.884,11.491 10.884,11.491c0,0 -1.097,1.239 -1.336,3.061c-0.76,0.258 -1.877,0.576 -2.78,0.576c-2.362,0 -4.159,-2.296 -4.817,-3.358c-0.649,-1.048 -1.98,-1.927 -3.221,-1.927c-0.817,0 -1.216,0.409 -1.216,0.876c0,0.467 1.146,0.793 1.902,1.659c1.594,1.826 1.565,5.933 7.245,5.933c0.617,0 1.876,-0.152 2.823,-0.279c-0.006,1.293 -0.007,2.657 0.013,3.454c0.034,1.355 -1.586,2.114 -1.586,2.114c0,0 0.004,0.013 0.007,0.022c-9.61,-3.133 -16.558,-12.162 -16.558,-22.818c0,-13.255 10.745,-24 24,-24z"></path></g></g>
</svg> -->

<svg style="color: white" xmlns="http://www.w3.org/2000/svg" width="16" height="16" fill="currentColor" class="bi bi-github" viewBox="0 0 16 16"> <path d="M8 0C3.58 0 0 3.58 0 8c0 3.54 2.29 6.53 5.47 7.59.4.07.55-.17.55-.38 0-.19-.01-.82-.01-1.49-2.01.37-2.53-.49-2.69-.94-.09-.23-.48-.94-.82-1.13-.28-.15-.68-.52-.01-.53.63-.01 1.08.58 1.23.82.72 1.21 1.87.87 2.33.66.07-.52.28-.87.51-1.07-1.78-.2-3.64-.89-3.64-3.95 0-.87.31-1.59.82-2.15-.08-.2-.36-1.02.08-2.12 0 0 .67-.21 2.2.82.64-.18 1.32-.27 2-.27.68 0 1.36.09 2 .27 1.53-1.04 2.2-.82 2.2-.82.44 1.1.16 1.92.08 2.12.51.56.82 1.27.82 2.15 0 3.07-1.87 3.75-3.65 3.95.29.25.54.73.54 1.48 0 1.07-.01 1.93-.01 2.2 0 .21.15.46.55.38A8.012 8.012 0 0 0 16 8c0-4.42-3.58-8-8-8z" fill="white"></path> </svg>